<svg xmlns="http://www.w3.org/2000/svg" width="2074.185" height="49.116" viewBox="0 0 2074.185 49.116"><defs><style>.a{fill:none;stroke:#fff;stroke-width:1.484px;}.b{fill:#e2c0ab;}.c{fill:#fff;}</style></defs><g transform="translate(883.398 -626.727)"><path class="a" d="M-883.307,652.143s209.787,25.84,415.047-12.267c196.638-36.506,355.415-29.321,474.683-15.531,4.933.57-5.305-.633,0,0,126.286,15.063,276.258,24.245,397.68,27.8s363.536-16.927,512.422-27.8,186.469-5.435,242.844-3.106" transform="translate(0 14.379)"/><path d="M227.584,699.727c-2.729-3.207-6.718-4.993-11.625-6.167l11.625,6.167m-14.658-8.289c-4.68-.428-9.506-.454-13.192,1.54-4.009,2.168-4.264,3.22-3.05,4.885,3.149-4.885,5.933-5.745,16.242-6.425m-1.032,14.483c3.987.371,7.1.852,10.227.9,3.714.059,5.574-1.607,4.2-3.634-3.136-4.625-8.931-7.65-16.589-9.331a8.042,8.042,0,0,0-3.971.79,10.145,10.145,0,0,0-2.637,2.045c-1.385,1.229-1.494,2.537-.334,3.846a22.613,22.613,0,0,0,8.959,5.974,45.944,45.944,0,0,0,5.611,1.373l.182-.314-5.65-1.652m-10.49-.862c-2.464-1.246-6.9-3.52-7.25-7.478-.209-2.357,1.307-3.916,4.435-5.43a28.228,28.228,0,0,1,9.34-2.3,18.551,18.551,0,0,1,10.247,1.73,54.732,54.732,0,0,1,9.567,5.406c3.529,2.683,5.461,5.825,3.3,9.347-1.664,2.717-4.779,3.683-9.615,3.768-7,.123-12.721-1.464-20.026-5.047" transform="translate(958.836 -63)"/><path class="b" d="M208.928,706.254l.715-.435q-2.465-1.465-4.932-2.928l-.36.21,4.577,3.154m.4.141,5.651,1.652c-.062.1-.123.21-.184.314a45.9,45.9,0,0,1-5.61-1.374,22.61,22.61,0,0,1-8.961-5.974c-1.16-1.309-1.052-2.617.334-3.845a10.128,10.128,0,0,1,2.637-2.046,8.042,8.042,0,0,1,3.971-.79c7.66,1.681,13.455,4.706,16.589,9.331,1.375,2.027-.487,3.693-4.2,3.634-3.128-.05-6.24-.531-10.227-.9" transform="translate(961.397 -63.474)"/><path class="c" d="M212.3,691.61c-10.31.68-13.093,1.54-16.242,6.424-1.216-1.665-.96-2.717,3.048-4.884,3.687-1.994,8.513-1.968,13.194-1.54" transform="translate(959.458 -63.172)"/><path class="c" d="M220.474,700.173l-11.626-6.167c4.905,1.174,8.9,2.959,11.626,6.167" transform="translate(965.947 -63.446)"/><path d="M207.327,707.257l-4.579-3.154.362-.21,4.932,2.928-.715.435" transform="translate(962.999 -64.477)"/></g></svg>